<?xml version="1.0" ?><svg viewBox="0 0 512 512" xmlns="http://www.w3.org/2000/svg"><g id="Spatula"><path d="M438.5255,176.5769l-103.11-103.11a10,10,0,0,0-15.0567,1.0517l-69.4541,92.1436a37.4084,37.4084,0,0,0,3.4053,48.75l14.0635,14.0635L209.9183,287.93a50.88,50.88,0,0,0-24.3576-8.306,9.9845,9.9845,0,0,0-7.8233,2.9L81.2413,379.0218a36.5779,36.5779,0,0,0,51.73,51.7285l96.4961-96.4966a10.0005,10.0005,0,0,0,2.9-7.8228,50.8782,50.8782,0,0,0-8.3062-24.3582l58.4546-58.4543,14.0635,14.0635a37.4054,37.4054,0,0,0,48.751,3.4053l92.1435-69.4536a10.0007,10.0007,0,0,0,1.0518-15.0567Zm-139.2666-5.8881a8.5,8.5,0,0,1-6.582-13.8726l31.2519-38.3228a8.5,8.5,0,1,1,13.1739,10.7442L305.8507,167.56A8.4831,8.4831,0,0,1,299.2589,170.6888Zm25.2744,25.27a8.5,8.5,0,0,1-6.0107-14.51L353.31,146.6609a8.5,8.5,0,1,1,12.0215,12.02l-34.7871,34.7871A8.4746,8.4746,0,0,1,324.5333,195.9583Zm68.9649-7.8945-38.3233,31.2519a8.5,8.5,0,0,1-10.7441-13.1748l38.3232-31.252a8.5,8.5,0,0,1,10.7442,13.1749Z"/></g></svg>